<?xml version="1.0" encoding="utf-8"?>
<!-- Generator: Adobe Illustrator 23.0.4, SVG Export Plug-In . SVG Version: 6.00 Build 0)  -->
<svg version="1.1" id="Слой_1" xmlns="http://www.w3.org/2000/svg" xmlns:xlink="http://www.w3.org/1999/xlink" x="0px" y="0px"
	 viewBox="0 0 88 88" style="enable-background:new 0 0 88 88;" xml:space="preserve">
<style type="text/css">
	.st0{fill-rule:evenodd;clip-rule:evenodd;fill:#181E2A;}
	.st1{fill-rule:evenodd;clip-rule:evenodd;fill:#60E5A8;}
	.st2{fill:none;stroke:#60E5A8;}
</style>
<circle class="st0" cx="44" cy="44" r="44"/>
<g>
	<polygon class="st1" points="48.3,42.8 49.7,46.8 54.1,35.6 56.4,43.6 60.4,44.6 55.5,44.6 54.1,40.5 49.7,51.6 48.9,49 47.3,43.8 
		44.4,42.8 	"/>
	<g transform="translate(38 24)">
		<path class="st2" d="M5.9,1.1c3.6,0,6.3,0,8.1,0s4.8,0,8.9,0c1.7,0,2.9,1.3,2.9,3v32.6c0,1.7-1.2,3.3-2.9,3.3c-1.1,0-6.8,0-17,0
			c-1.7,0-3.1-1.6-3.1-3.3V4.1C2.9,2.4,4.2,1.1,5.9,1.1z M20.3,37.1H8.4"/>
		<path class="st2" d="M18.9,1.6v0.8c0,0.3-0.7,0.6-1,0.6h-6.9c-0.3,0-1.1-0.3-1.1-0.6V1.6"/>
	</g>
	<path class="st2" d="M36.7,39.5L33,33.6 M33.9,44h-8.5 M23.8,44c0-1.1-0.9-2-2-2c-1.1,0-2,0.9-2,2s0.9,2,2,2
		C22.9,46,23.8,45.1,23.8,44z M33,30.7c0-1.1-0.9-2-2-2c-1.1,0-2,0.9-2,2s0.9,2,2,2C32.1,32.7,33,31.8,33,30.7z M36.4,49.5l-3,5.1
		 M33.4,57.5c0,1.1-0.9,2-2,2c-1.1,0-2-0.9-2-2s0.9-2,2-2C32.5,55.5,33.4,56.4,33.4,57.5z M37.5,39c-2.2,0.7-3.8,2.8-3.8,5.3
		c0,2.4,1.6,4.5,3.8,5.3"/>
</g>
</svg>
