<?xml version="1.0" encoding="utf-8"?>
<!-- Generator: Adobe Illustrator 23.0.4, SVG Export Plug-In . SVG Version: 6.00 Build 0)  -->
<svg version="1.1" id="Слой_1" xmlns="http://www.w3.org/2000/svg" xmlns:xlink="http://www.w3.org/1999/xlink" x="0px" y="0px"
	 viewBox="0 0 88 88" style="enable-background:new 0 0 88 88;" xml:space="preserve">
<style type="text/css">
	.st0{fill-rule:evenodd;clip-rule:evenodd;fill:#181E2A;}
	.st1{fill:#60E5A8;}
	.st2{fill:none;stroke:#60E5A8;}
</style>
<circle class="st0" cx="44" cy="44" r="44"/>
<g transform="translate(32 24)">
	<g transform="translate(3 12)">
		<polygon class="st1" points="5,13 5,11 17,11 17,13 		"/>
		<polygon class="st1" points="5,8 5,6 17,6 17,8 		"/>
		<polygon class="st1" points="5,3 5,1 17,1 17,3 		"/>
		<polygon class="st1" points="1,13 1,11 3,11 3,13 		"/>
		<polygon class="st1" points="1,8 1,6 3,6 3,8 		"/>
		<polygon class="st1" points="1,3 1,1 3,1 3,3 		"/>
	</g>
	<path class="st2" d="M3.6,0.5h17c1.7,0,3,1.3,3,3v32.6c0,1.7-1.3,3.3-3,3.3c-1.1,0-6.8,0-16.9,0c-1.7,0-3.1-1.6-3.1-3.3V3.5
		C0.5,1.8,1.9,0.5,3.6,0.5z"/>
	<path class="st2" d="M16.5,1v0.8c0,0.3-0.7,0.6-1,0.6H8.6c-0.3,0-1.1-0.3-1.1-0.6V1 M18,36.5H6"/>
</g>
</svg>
