<?xml version="1.0" encoding="utf-8"?>
<!-- Generator: Adobe Illustrator 23.0.4, SVG Export Plug-In . SVG Version: 6.00 Build 0)  -->
<svg version="1.1" id="Слой_1" xmlns="http://www.w3.org/2000/svg" xmlns:xlink="http://www.w3.org/1999/xlink" x="0px" y="0px"
	 viewBox="0 0 88 88" style="enable-background:new 0 0 88 88;" xml:space="preserve">
<style type="text/css">
	.st0{fill-rule:evenodd;clip-rule:evenodd;fill:#181E2A;}
	.st1{fill-rule:evenodd;clip-rule:evenodd;fill:#60E5A8;}
	.st2{fill:none;stroke:#60E5A8;}
</style>
<circle class="st0" cx="44" cy="44" r="44"/>
<g>
	<path class="st1" d="M50.6,42.3c0.2,0,0.4,0.2,0.4,0.4v0.7c0,0.2-0.2,0.4-0.4,0.4h-1.8c-0.1,0.8-0.5,1.5-1,2.1l1.4,1.4
		c0.1,0.1,0.1,0.4,0,0.5l-0.5,0.5c-0.1,0.1-0.4,0.1-0.5,0l-1.4-1.4c-0.6,0.4-1.3,0.7-2.1,0.8v2c0,0.2-0.2,0.4-0.4,0.4h-0.7
		c-0.2,0-0.4-0.2-0.4-0.4v-2c-0.8-0.1-1.5-0.4-2.1-0.8l-1.4,1.4c-0.1,0.1-0.4,0.1-0.5,0l-0.5-0.5c-0.1-0.1-0.1-0.4,0-0.5l1.4-1.4
		c-0.5-0.6-0.8-1.3-1-2.1h-1.8c-0.2,0-0.4-0.2-0.4-0.4v-0.7c0-0.2,0.2-0.4,0.4-0.4h1.8c0.1-0.8,0.4-1.6,0.8-2.3l-1.2-1.2
		c-0.1-0.1-0.1-0.4,0-0.5l0.5-0.5c0.1-0.1,0.4-0.1,0.5,0L41,39c0.7-0.5,1.4-0.9,2.3-1v-1.6c0-0.2,0.2-0.4,0.4-0.4h0.7
		c0.2,0,0.4,0.2,0.4,0.4V38c0.9,0.1,1.7,0.5,2.3,1l1.2-1.2c0.1-0.1,0.4-0.1,0.5,0l0.5,0.5c0.1,0.1,0.1,0.4,0,0.5L48,40
		c0.5,0.7,0.8,1.4,0.8,2.3H50.6z M44,45.5c1.5,0,2.7-1.2,2.7-2.7c0-1.5-1.2-2.7-2.7-2.7c-1.5,0-2.7,1.2-2.7,2.7
		C41.3,44.3,42.5,45.5,44,45.5z"/>
	<g transform="translate(32 24)">
		<path class="st2" d="M3.6,0.5h17c1.7,0,2.9,1.3,2.9,3v32.6c0,1.7-1,3.3-2.7,3.3c-1.1,0-6.9,0-17.2,0c-1.7,0-3.1-1.6-3.1-3.3V3.5
			C0.5,1.8,1.9,0.5,3.6,0.5z"/>
		<path class="st2" d="M16.5,1v0.8c0,0.3-0.7,0.6-1,0.6H8.6c-0.3,0-1.1-0.3-1.1-0.6V1 M18,36.5H6"/>
	</g>
</g>
</svg>
