<?xml version="1.0" encoding="utf-8"?>
<!-- Generator: Adobe Illustrator 25.0.0, SVG Export Plug-In . SVG Version: 6.00 Build 0)  -->
<svg version="1.1" id="Слой_1" xmlns="http://www.w3.org/2000/svg" xmlns:xlink="http://www.w3.org/1999/xlink" x="0px" y="0px"
	 viewBox="0 0 427 427" style="enable-background:new 0 0 427 427;" xml:space="preserve">
<style type="text/css">
	.st0{fill:#F87171;}
	.st1{fill:#FECACA;}
	.st2{fill:#FFFFFF;}
</style>
<path class="st0" d="M410,305.4H76.9c-18.2,0-32.9-14.8-32.9-32.9v-8.3H14v28.3c0,18.2,14.8,32.9,32.9,32.9h333.1
	c13.2,0,25.1-7.9,30.3-20C410.2,305.4,410.1,305.4,410,305.4z"/>
<path class="st1" d="M300.8,411h-80.3v-78.6c0-3.9-3.1-7-7-7c-3.9,0-7,3.1-7,7V411H131c-3.9,0-7,3.1-7,7c0,3.9,3.1,7,7,7h169.8
	c3.9,0,7-3.1,7-7C307.8,414.2,304.6,411,300.8,411z"/>
<path class="st1" d="M105.2,136.2c-2,0-4-0.9-5.3-2.4l-11.5-13.5c-2.5-2.9-2.2-7.3,0.8-9.9c2.9-2.5,7.3-2.2,9.9,0.8l7.1,8.3
	l21.6-17.6c3-2.4,7.4-1.9,9.8,1c2.4,3,2,7.4-1,9.8l-26.9,21.9C108.3,135.7,106.8,136.2,105.2,136.2z"/>
<path class="st2" d="M380.1,1.7H46.9C21,1.7,0,22.7,0,48.6v243.9c0,25.9,21,46.9,46.9,46.9h333.1c4.2,0,8.2-0.5,12-1.6
	c3.2-0.8,6.3-2,9.2-3.5c15.2-7.8,25.7-23.6,25.7-41.8V48.6C427,22.7,406,1.7,380.1,1.7z M413,250.2h-20.9v14H413v28.3
	c0,4.6-1,9-2.7,13c0,0.1-0.1,0.1-0.1,0.2c0,0,0,0.1-0.1,0.1c0,0,0,0.1-0.1,0.2c-0.1,0.2-0.2,0.4-0.3,0.6c0,0,0,0,0,0
	c-0.1,0.2-0.2,0.5-0.3,0.7c-0.1,0.2-0.2,0.5-0.4,0.7c-0.1,0.1-0.1,0.3-0.2,0.4c-0.2,0.4-0.5,0.8-0.7,1.2c-0.1,0.2-0.3,0.4-0.4,0.7
	c-0.3,0.5-0.6,0.9-0.9,1.3c-0.6,0.9-1.3,1.7-2,2.5c-0.3,0.4-0.7,0.8-1.1,1.2c-0.2,0.2-0.4,0.4-0.5,0.6c-0.4,0.4-0.8,0.7-1.1,1.1
	c-0.2,0.2-0.4,0.3-0.6,0.5c-0.1,0.1-0.2,0.2-0.3,0.3v0c-0.5,0.4-1,0.8-1.5,1.2c-0.4,0.3-0.9,0.6-1.3,0.9c-0.2,0.1-0.4,0.2-0.5,0.4
	c-0.6,0.4-1.2,0.8-1.8,1.1c-0.3,0.2-0.7,0.3-1,0.5c-0.4,0.2-0.7,0.4-1.1,0.5s-0.7,0.3-1.1,0.5c-0.3,0.1-0.6,0.3-0.9,0.4
	c-0.1,0-0.1,0-0.2,0.1c-0.4,0.2-0.7,0.3-1.1,0.4c-0.4,0.2-0.8,0.3-1.3,0.4c-0.7,0.2-1.5,0.4-2.2,0.6c-0.4,0.1-0.8,0.2-1.2,0.2
	c-0.8,0.1-1.6,0.3-2.4,0.4c-0.3,0-0.7,0.1-1,0.1c-0.2,0-0.3,0-0.5,0c-0.2,0-0.5,0-0.8,0c-0.5,0-0.9,0-1.4,0H46.9
	c-18.2,0-32.9-14.8-33-33v-28.3h387.6v-14H14V48.6c0-18.2,14.8-32.9,33-33h333.1c18.2,0,32.9,14.8,33,33V250.2z"/>
<path class="st2" d="M136.4,68.5c-23.3-11-51.1-4.5-67,15.8c-16.8,21.5-15.4,52,3.3,71.8c10.4,11,24.9,17.2,40.1,17.3
	c25.8,0,48.1-17.9,53.8-43C172.2,105.3,159.7,79.6,136.4,68.5z M151.7,131.7c-6.5,19-25.9,30.5-45.7,27.2
	c-19.8-3.3-34.3-20.5-34.3-40.6c0-9.2,3.1-18.1,8.7-25.3c12.4-15.8,34.4-20.4,52-10.8C150.1,91.8,158.3,112.7,151.7,131.7z"/>
<path class="st2" d="M64.7,199.3h94.9c3.9,0,7-3.1,7-7c0-3.9-3.1-7-7-7H64.7c-3.9,0-7,3.1-7,7C57.7,196.2,60.9,199.3,64.7,199.3z"/>
<path class="st2" d="M64.7,229.3h55.9c3.9,0,7-3.1,7-7c0-3.9-3.1-7-7-7H64.7c-3.9,0-7,3.1-7,7C57.7,226.2,60.9,229.3,64.7,229.3z"/>
</svg>
