<?xml version="1.0" encoding="utf-8"?>
<!-- Generator: Adobe Illustrator 25.0.0, SVG Export Plug-In . SVG Version: 6.00 Build 0)  -->
<svg version="1.1" id="Слой_1" xmlns="http://www.w3.org/2000/svg" xmlns:xlink="http://www.w3.org/1999/xlink" x="0px" y="0px"
	 viewBox="0 0 427 427" style="enable-background:new 0 0 427 427;" xml:space="preserve">
<style type="text/css">
	.st0{fill:#F87171;}
	.st1{fill:#FECACA;}
	.st2{fill:#FFFFFF;}
</style>
<path class="st0" d="M410,305.4H76.9c-18.2,0-32.9-14.8-32.9-32.9v-8.3H14v28.3c0,18.2,14.8,32.9,32.9,32.9h333.1
	c13.2,0,25.1-7.9,30.3-20C410.2,305.4,410.1,305.4,410,305.4z"/>
<path class="st1" d="M300.8,411h-80.3v-78.6c0-3.9-3.1-7-7-7c-3.9,0-7,3.1-7,7V411H131c-3.9,0-7,3.1-7,7c0,3.9,3.1,7,7,7h169.8
	c3.9,0,7-3.1,7-7C307.8,414.2,304.6,411,300.8,411z"/>
<path class="st1" d="M105.2,136.2c-2,0-4-0.9-5.3-2.4l-11.5-13.5c-2.5-2.9-2.2-7.3,0.8-9.9c2.9-2.5,7.3-2.2,9.9,0.8l7.1,8.3
	l21.6-17.6c3-2.4,7.4-1.9,9.8,1c2.4,3,2,7.4-1,9.8l-26.9,21.9C108.3,135.7,106.8,136.2,105.2,136.2z"/>
<path class="st2" d="M380.1,1.7H46.9C21,1.7,0,22.7,0,48.6v243.9c0,25.9,21,46.9,46.9,46.9h333.1c4.2,0,8.2-0.5,12-1.6
	c3.2-0.8,6.3-2,9.2-3.5c15.2-7.8,25.7-23.6,25.7-41.8V48.6C427,22.7,406,1.7,380.1,1.7z M413,250.2h-20.9v14H413v28.3
	c0,4.6-1,9-2.7,13c0,0.1-0.1,0.1-0.1,0.2c0,0,0,0.1-0.1,0.1c0,0,0,0.1-0.1,0.2c-0.1,0.2-0.2,0.4-0.3,0.6c0,0,0,0,0,0
	c-0.1,0.2-0.2,0.5-0.3,0.7c-0.1,0.2-0.2,0.5-0.4,0.7c-0.1,0.1-0.1,0.3-0.2,0.4c-0.2,0.4-0.5,0.8-0.7,1.2c-0.1,0.2-0.3,0.4-0.4,0.7
	c-0.3,0.5-0.6,0.9-0.9,1.3c-0.6,0.9-1.3,1.7-2,2.5c-0.3,0.4-0.7,0.8-1.1,1.2c-0.2,0.2-0.4,0.4-0.5,0.6c-0.4,0.4-0.8,0.7-1.1,1.1
	c-0.2,0.2-0.4,0.3-0.6,0.5c-0.1,0.1-0.2,0.2-0.3,0.3v0c-0.5,0.4-1,0.8-1.5,1.2c-0.4,0.3-0.9,0.6-1.3,0.9c-0.2,0.1-0.4,0.2-0.5,0.4
	c-0.6,0.4-1.2,0.8-1.8,1.1c-0.3,0.2-0.7,0.3-1,0.5c-0.4,0.2-0.7,0.4-1.1,0.5s-0.7,0.3-1.1,0.5c-0.3,0.1-0.6,0.3-0.9,0.4
	c-0.1,0-0.1,0-0.2,0.1c-0.4,0.2-0.7,0.3-1.1,0.4c-0.4,0.2-0.8,0.3-1.3,0.4c-0.7,0.2-1.5,0.4-2.2,0.6c-0.4,0.1-0.8,0.2-1.2,0.2
	c-0.8,0.1-1.6,0.3-2.4,0.4c-0.3,0-0.7,0.1-1,0.1c-0.2,0-0.3,0-0.5,0c-0.2,0-0.5,0-0.8,0c-0.5,0-0.9,0-1.4,0H46.9
	c-18.2,0-32.9-14.8-33-33v-28.3h235.7v-14H14V48.6c0-18.2,14.8-32.9,33-33h333.1c18.2,0,32.9,14.8,33,33V250.2z"/>
<path class="st2" d="M136.4,68.5c-23.3-11-51.1-4.5-67,15.8c-16.8,21.5-15.4,52,3.3,71.8c10.4,11,24.9,17.2,40.1,17.3
	c25.8,0,48.1-17.9,53.8-43C172.2,105.3,159.7,79.6,136.4,68.5z M151.7,131.7c-6.5,19-25.9,30.5-45.7,27.2
	c-19.8-3.3-34.3-20.5-34.3-40.6c0-9.2,3.1-18.1,8.7-25.3c12.4-15.8,34.4-20.4,52-10.8C150.1,91.8,158.3,112.7,151.7,131.7z"/>
<path class="st2" d="M64.7,199.3h94.9c3.9,0,7-3.1,7-7c0-3.9-3.1-7-7-7H64.7c-3.9,0-7,3.1-7,7C57.7,196.2,60.9,199.3,64.7,199.3z"/>
<path class="st2" d="M64.7,229.3h55.9c3.9,0,7-3.1,7-7c0-3.9-3.1-7-7-7H64.7c-3.9,0-7,3.1-7,7C57.7,226.2,60.9,229.3,64.7,229.3z"/>
<path class="st1" d="M337.7,255.1l-8.7,7.1l-11.8,9.6c-0.8,0.7-1.8,1-2.9,1c-1.3,0-2.6-0.6-3.5-1.6l-7.7-9l-1.1-1.3
	c-1.1-1.2-1.4-3-0.9-4.5c0.5-1.6,1.9-2.7,3.5-3c1.6-0.3,3.3,0.3,4.3,1.6l5.9,6.8l16.7-13.5l0.3-0.2c1.8-1.5,4.4-1.3,6.1,0.2
	c0.1,0.1,0.3,0.3,0.4,0.4C340,250.6,339.7,253.5,337.7,255.1z"/>
<path class="st2" d="M373.6,123H268.2c-15.3,0-27.7,12.4-27.7,27.7v8.6c0,2.5,2.1,4.6,4.6,4.6c2.5,0,4.6-2.1,4.6-4.6v-8.6
	c0-10.2,8.3-18.5,18.5-18.5h105.4c10.2,0,18.5,8.3,18.5,18.5v9.5c0,2.5,2.1,4.6,4.6,4.6c2.5,0,4.6-2.1,4.6-4.6v-9.5
	C401.3,135.4,388.9,123,373.6,123z"/>
<path class="st2" d="M392.1,156v206.4H249.7V156h-9.2v241.2c0,15.3,12.4,27.7,27.7,27.7h105.4c15.3,0,27.7-12.4,27.7-27.7V156H392.1
	z M392.1,397.3c0,10.2-8.3,18.5-18.5,18.5H268.2c-10.2,0-18.5-8.3-18.5-18.5v-25.6h142.4V397.3z"/>
<path class="st2" d="M306.8,398.5H335c2.5,0,4.6-2.1,4.6-4.6c0-2.5-2.1-4.6-4.6-4.6h-28.2c-2.5,0-4.6,2.1-4.6,4.6
	C302.2,396.4,304.2,398.5,306.8,398.5z"/>
<path class="st2" d="M356.3,234.6c-0.4-0.6-0.9-1.3-1.4-1.9c-2.5-3.2-5.3-5.9-8.4-8.2c-7.2-5.4-15.7-8.3-24.4-8.7
	c-2.9-0.1-5.8,0-8.6,0.5c-7.2,1.1-14.3,4-20.5,8.8c-6.2,4.8-10.7,10.9-13.6,17.7c-1.9,4.5-3,9.3-3.3,14.2
	c-0.5,6.7,0.6,13.5,3.3,19.9c1.5,3.6,3.5,7,5.9,10.1c0.5,0.6,1,1.2,1.5,1.8c1.5,1.7,3.1,3.3,4.8,4.8c4.2,3.6,9.1,6.3,14.2,8
	c11.6,4,24.6,3,35.8-3.2c1.9-1.1,3.8-2.3,5.6-3.7c1.8-1.4,3.5-2.9,5-4.5C366.4,275.1,368.3,251.9,356.3,234.6z M341.6,287.4
	c-14.6,11.3-35.3,9.3-47.4-4.3c-0.5-0.6-1-1.2-1.5-1.8c-2.5-3.2-4.4-6.8-5.6-10.4c-4.5-13.6-0.3-29.2,11.7-38.5
	c9.4-7.3,21.3-9,31.8-5.8c2.9,0.9,5.8,2.2,8.4,3.9c3.3,2.1,6.2,4.7,8.7,8c0.5,0.6,0.9,1.2,1.4,1.9
	C359.3,255.4,356.2,276,341.6,287.4z"/>
</svg>
