<?xml version="1.0" encoding="utf-8"?>
<!-- Generator: Adobe Illustrator 25.0.0, SVG Export Plug-In . SVG Version: 6.00 Build 0)  -->
<svg version="1.1" id="Слой_1" xmlns="http://www.w3.org/2000/svg" xmlns:xlink="http://www.w3.org/1999/xlink" x="0px" y="0px"
	 viewBox="0 0 384 384" style="enable-background:new 0 0 384 384;" xml:space="preserve">
<style type="text/css">
	.st0{fill:#F87171;}
	.st1{fill:#FECACA;}
	.st2{fill:#FFFFFF;}
</style>
<g>
	<g>
		<path class="st0" d="M54,290V75.3H27c-7.2,0-13,5.8-13,13V320c0,7.2,5.8,13,13,13h18.6c2.2-12.8,10.1-23.9,21.6-30H67
			C59.8,303,54,297.2,54,290z"/>
		<path class="st0" d="M106.9,303c11.4,6.1,19.4,17.2,21.6,30h75.1v-30H106.9z"/>
		<path class="st0" d="M67.1,303h39.7C94.5,296.4,79.5,296.4,67.1,303z"/>
	</g>
</g>
<path class="st1" d="M27,346.3h25v-14H27c-7.2,0-13-5.8-13-13V87.6c0-7.2,5.8-13,13-13h24v-14H27c-14.9,0-27,12.1-27,27v231.7
	C0,334.3,12.1,346.3,27,346.3z"/>
<path class="st1" d="M262,346.3c3.9,0,7-3.1,7-7c0-3.9-3.1-7-7-7h-44.5v-95.6H370v82.6c0,7.2-5.8,13-13,13h-25c-3.9,0-7,3.1-7,7
	c0,3.9,3.1,7,7,7h25c14.9,0,27-12.1,27-27v-89.6c0-0.1,0-0.1,0-0.2c0-0.1,0-0.2,0-0.4c0-0.1,0-0.2,0-0.3c0-0.1,0-0.2-0.1-0.3
	s0-0.2-0.1-0.3s-0.1-0.2-0.1-0.3c0-0.1-0.1-0.2-0.1-0.3c0-0.1-0.1-0.2-0.1-0.3c0-0.1-0.1-0.2-0.1-0.3s-0.1-0.2-0.1-0.3
	c-0.1-0.1-0.1-0.2-0.2-0.3c-0.1-0.1-0.1-0.2-0.2-0.3c-0.1-0.1-0.1-0.2-0.2-0.3c-0.1-0.1-0.1-0.2-0.2-0.3c-0.1-0.1-0.2-0.2-0.2-0.3
	c0,0-0.1-0.1-0.1-0.1l-51.5-56.1c-5.1-5.6-12.3-8.7-19.9-8.7h-93.3V87.6c0-14.9-12.1-27-27-27h-22v14h22c7.2,0,13,5.8,13,13v244.7
	H122v14H262z M217.5,174.2h93.3c3.6,0,7.1,1.5,9.6,4.2l40.8,44.4H217.5L217.5,174.2z"/>
<path class="st2" d="M87,381.3c-23.2,0-42-18.8-42-42c0-23.2,18.8-42,42-42s42,18.8,42,42C129,362.5,110.2,381.3,87,381.3z
	 M87,311.3c-15.5,0-28,12.5-28,28c0,15.5,12.5,28,28,28s28-12.5,28-28C115,323.9,102.5,311.4,87,311.3z"/>
<path class="st2" d="M297,381.3c-23.2,0-42-18.8-42-42c0-23.2,18.8-42,42-42s42,18.8,42,42C339,362.5,320.2,381.3,297,381.3z
	 M297,311.3c-15.5,0-28,12.5-28,28c0,15.5,12.5,28,28,28s28-12.5,28-28C325,323.9,312.5,311.4,297,311.3z"/>
<path class="st2" d="M108.7,165c-1.9,0-3.8-0.8-5.1-2.2l-42.6-45.4c-6.6-6.9-11.8-15.1-15.2-24.1c-3.2-8.7-4.6-18-4-27.2
	c1.1-16.8,8.3-32.7,20.2-44.7C74.4,9,91.2,2,108.7,2s34.3,7,46.7,19.4c11.9,12,19.1,27.8,20.2,44.7c0.6,9.2-0.8,18.5-4,27.2
	c-3.4,9-8.5,17.2-15.2,24.1l-42.6,45.4C112.5,164.2,110.7,165,108.7,165z M108.7,16c-13.8,0-27,5.5-36.8,15.3
	C62.5,40.8,56.7,53.5,55.9,67c-0.5,7.3,0.6,14.6,3.2,21.5c2.7,7.2,6.9,13.8,12.2,19.4l37.5,39.9l37.5-39.9
	c5.4-5.6,9.5-12.1,12.2-19.4c2.6-6.9,3.6-14.2,3.2-21.5c-0.9-13.5-6.6-26.2-16.1-35.7C135.8,21.5,122.5,16,108.7,16z M108.7,99
	c-17.9,0-32.5-14.9-32.5-33.2s14.6-33.2,32.5-33.2c17.9,0,32.5,14.9,32.5,33.2S126.7,99,108.7,99z M108.7,46.6
	c-10.2,0-18.5,8.6-18.5,19.2S98.5,85,108.7,85s18.5-8.6,18.5-19.2S118.9,46.6,108.7,46.6z"/>
</svg>
