<svg xmlns="http://www.w3.org/2000/svg" width="88" height="88" viewBox="0 0 88 88">
  <g fill="none" fill-rule="evenodd">
    <g transform="translate(52 25)">
      <path fill="#181818" stroke="#181818" d="M1.5,11.5 L5.5,11.5 C6.05228475,11.5 6.5,11.0522847 6.5,10.5 L6.5,3.5 L0.5,3.5 L0.5,10.5 C0.5,11.0522847 0.94771525,11.5 1.5,11.5 Z"/>
      <path stroke="#231F20" d="M3.5,37.0444336 L3.5,14"/>
      <polyline stroke="#181818" points="5.5 3.009 5.5 .5 1.5 .5 1.5 3.009"/>
    </g>
    <g transform="translate(29 26)">
      <path stroke="#181818" d="M.994018555 16.5L8.96972656 16.5M.994018555 21.5L8.96972656 21.5M.994018555 11.5L8.96972656 11.5M.994018555 6.5L8.96972656 6.5M.994018555 1.5L8.96972656 1.5"/>
      <path fill="#231F20" d="M1,27 L1,35 C1,36.1045695 1.8954305,37 3,37 L9,37 L9,30.2443563 L4.81025015,27 L1,27 Z"/>
    </g>
  </g>
</svg>
