<svg xmlns="http://www.w3.org/2000/svg" width="88" height="88" viewBox="0 0 88 88">
  <g fill="none" fill-rule="evenodd" transform="translate(23 22)">
    <path stroke="#181818" d="M11.068954 2.41274878C4.91011051 3.0018107.5 6.07834583.5 8.26933333L.5 32.1512381C.5 38.8689554 5.81291204 41.0031293 11.0048404 41.4339649M25.1638095 2.31314286C17.9409524 2.31314286 12.5 5.83695238 12.5 8.26933333L12.5 32.1512381C12.5 39.8102857 19.4133333 41.5112381 25.1638095 41.5226667 31.2514286 41.536 37.5 39.4693333 37.5 32.1512381L37.5 8.26933333C37.5 5.83695238 32.3866667 2.31314286 25.1638095 2.31314286z"/>
    <polygon fill="#181818" points="19.1 8.269 31.322 8.269 31.5 8.665 25.197 10.769 18.894 8.715"/>
    <path stroke="#181818" d="M17.245545,29.4962158 C16.277926,29.4962158 15.5,28.7114539 15.5,27.7457396 L15.5,17.2108571 C15.5,16.2432381 16.277926,15.460381 17.245545,15.460381 L32.7500952,15.460381 C33.7177143,15.460381 34.5005714,16.2432381 34.5005714,17.2108571 L34.5005714,27.7457396 C34.5005714,28.7114539 33.7177143,29.4962158 32.7500952,29.4962158 L17.245545,29.4962158 Z"/>
    <g transform="translate(31)">
      <path fill="#181818" d="M13,6.5 C13,10.0890288 10.0890288,13 6.5,13 C2.91097122,13 0,10.0890288 0,6.5 C0,2.91097122 2.91097122,0 6.5,0 C10.0890288,0 13,2.91097122 13,6.5"/>
      <polyline stroke="#FEFEFE" stroke-linecap="round" stroke-linejoin="round" points="3.9 5.62 6.137 7.858 9.578 3.9"/>
    </g>
  </g>
</svg>
