<?xml version="1.0" encoding="utf-8"?>
<!-- Generator: Adobe Illustrator 23.0.4, SVG Export Plug-In . SVG Version: 6.00 Build 0)  -->
<svg version="1.1" id="Слой_1" xmlns="http://www.w3.org/2000/svg" xmlns:xlink="http://www.w3.org/1999/xlink" x="0px" y="0px"
	 viewBox="0 0 88 88" style="enable-background:new 0 0 88 88;" xml:space="preserve">
<style type="text/css">
	.st0{fill-rule:evenodd;clip-rule:evenodd;fill:#181E2A;}
	.st1{fill:none;stroke:#60E5A8;}
</style>
<g>
	<circle class="st0" cx="44" cy="44" r="44"/>
	<g>
		<path class="st1" d="M44.3,63.8c-3.7,0-6.9-0.4-10.2-1.2c-1.7-0.4-3.3-1-4.7-2.1c-1.7-1.2-2.8-2.9-3.5-4.8c-0.7-2-1.1-4-1.4-6.1
			c-0.3-2.3-0.4-4.6-0.4-6.9c0.1-3.4,0.5-6.8,1.5-10c0.6-1.8,1.5-3.4,2.9-4.7c1.1-1,2.4-1.8,3.8-2.3c1.8-0.6,3.6-1,5.5-1.3
			c2.6-0.4,5.2-0.5,7.9-0.4c3.1,0.1,6.2,0.5,9.2,1.4c3,0.9,5.3,2.6,6.7,5.4c0.7,1.5,1.1,3.1,1.5,4.7c0.7,3.3,0.9,6.6,0.8,9.9
			c-0.1,3.1-0.5,6.1-1.4,9.1c-0.6,2.2-1.7,4.1-3.4,5.5c-1.4,1.1-3,1.8-4.7,2.3c-2.3,0.6-4.7,1-7,1.2C46.1,63.8,45,63.8,44.3,63.8"/>
		<path class="st1" d="M42,29.8v1c0,1.1,0.9,2,2,2c1.1,0,2-0.9,2-2v-1 M42,58.3v-1c0-1.1,0.9-2,2-2c1.1,0,2,0.9,2,2v1"/>
		<circle class="st1" cx="44" cy="44" r="16.4"/>
		<circle class="st1" cx="52.2" cy="44" r="2.6"/>
		<circle class="st1" cx="36.1" cy="44" r="2.6"/>
	</g>
</g>
</svg>
