<svg xmlns="http://www.w3.org/2000/svg" width="88" height="88" viewBox="0 0 88 88">
  <g fill="none" fill-rule="evenodd">
    <g transform="translate(33 34)">
      <path fill="#181818" d="M20.9951172,18.0097656 L20.9231585,24.6562894 C20.9231585,25.2823847 20.2960171,25.9985352 19.6699219,25.9985352 L2.42657645,25.9985352 C1.79867169,25.9985352 0.931947545,25.2823847 0.931947545,24.6562894 L1.00390625,18.0097656 L20.9951172,18.0097656 Z"/>
      <path stroke="#231F20" d="M5.51935887,3.5 L16.4967041,3.5 L16.4967041,8.49621582 C16.4967041,10.068692 14.4982204,11.7539551 12.5714286,11.7539551 L9.31428571,11.7539551 C7.38527667,11.7539551 5.50244141,10.068692 5.50244141,8.49621582 L5.51935887,3.5 Z"/>
      <path stroke="#231F20" stroke-linecap="round" d="M14.5.503723145L14.5 3.36132812M7.52130127.489440918L7.52130127 3.3452381"/>
      <path stroke="#231F20" stroke-linecap="round" stroke-width="2" d="M11,12 L11,19"/>
    </g>
    <path stroke="#231F20" d="M40.5 26.0642857L40.5 24.9429836C40.5 24.1372097 41.410339 23.5 42.2142857 23.5L46.2558438 23.5C47.0597906 23.5 47.5 24.1372097 47.5 24.9429836L47.5 26.0642857M34.0428571 28.5L54 28.5C54.7984653 28.5 55.5 28.9056467 55.5 29.7091099L55.5 59.8937621C55.5 60.6972254 54.7984653 61.4428571 54 61.4428571L34.0428571 61.4428571C33.2443918 61.4428571 32.5 60.6972254 32.5 59.8937621L32.5 29.7091099C32.5 28.9056467 33.2443918 28.5 34.0428571 28.5z"/>
  </g>
</svg>
