<svg xmlns="http://www.w3.org/2000/svg" width="88" height="88" viewBox="0 0 88 88">
  <g fill="none" fill-rule="evenodd" transform="translate(32 22)">
    <path stroke="#181818" d="M21.7886609,39.5 L15.2188204,39.5 C14.2489074,39.5 13.5,38.4984174 13.5,37.5285043 L13.5,5.26785258 C13.5,4.29793954 14.2489074,3.5 15.2188204,3.5 L21.7886609,3.5 C22.7585739,3.5 23.5,4.29793954 23.5,5.26785258 L23.5,37.5285043 C23.5,38.4984174 22.7585739,39.5 21.7886609,39.5 Z"/>
    <path fill="#181818" d="M16.3372413,3.65148082 C16.1574152,3.65148082 16.0120239,3.50608951 16.0120239,3.32626343 L16.0120239,1.3231422 C16.0120239,1.14522915 16.1574152,0.997924805 16.3372413,0.997924805 L20.6739281,0.997924805 C20.8537542,0.997924805 20.9991455,1.14522915 20.9991455,1.3231422 L20.9991455,3.32626343 C20.9991455,3.50608951 20.8537542,3.65148082 20.6739281,3.65148082 L16.3372413,3.65148082 Z"/>
    <g transform="rotate(180 5.5 21.5)">
      <path stroke="#181818" d="M8.78866087,39.5 L2.2188204,39.5 C1.24890735,39.5 0.5,38.4984174 0.5,37.5285043 L0.5,5.26785258 C0.5,4.29793954 1.24890735,3.5 2.2188204,3.5 L8.78866087,3.5 C9.75857391,3.5 10.5,4.29793954 10.5,5.26785258 L10.5,37.5285043 C10.5,38.4984174 9.75857391,39.5 8.78866087,39.5 Z" transform="rotate(180 5.5 21.5)"/>
      <path fill="#181818" d="M3.33724132,3.65148082 C3.15741523,3.65148082 3.01202393,3.50608951 3.01202393,3.32626343 L3.01202393,1.3231422 C3.01202393,1.14522915 3.15741523,0.997924805 3.33724132,0.997924805 L7.67392812,0.997924805 C7.8537542,0.997924805 7.99914551,1.14522915 7.99914551,1.3231422 L7.99914551,3.32626343 C7.99914551,3.50608951 7.8537542,3.65148082 7.67392812,3.65148082 L3.33724132,3.65148082 Z" transform="rotate(180 5.506 2.325)"/>
    </g>
  </g>
</svg>
