<svg xmlns="http://www.w3.org/2000/svg" width="88" height="88" viewBox="0 0 88 88">
  <g fill="none" fill-rule="evenodd" transform="translate(26 23)">
    <path stroke="#231F20" d="M10.3652987 36.0030844L9.64744156 37.2459416C9.07958442 38.2273701 9.78887013 39.5 10.9245844 39.5L24.6388701 39.5C25.7724416 39.5 26.3751625 38.2273701 25.8094482 37.2459416L25.2281558 36.054513M20.5 1.55681818C20.5 2.16538961 20.1387228 2.5 19.5301514 2.5L16.5909416 2.5C15.984513 2.5 15.5 2.16538961 15.5 1.55681818M10 17.5921429C10 13.3985714 13.4007143 10 17.5942857 10 21.7878571 10 25.1864286 13.3985714 25.1864286 17.5921429 25.1864286 21.7857143 21.7878571 25.1842857 17.5942857 25.1842857 13.4007143 25.1842857 10 21.7857143 10 17.5921429z"/>
    <path stroke="#231F20" d="M0.491169,17.5 C0.491169,7.83425447 8.32542347,0 17.991169,0 C27.6548567,0 35.491169,7.83425447 35.491169,17.5 C35.491169,27.1636877 27.6548567,35 17.991169,35 C8.32542347,35 0.491169,27.1636877 0.491169,17.5 Z"/>
    <path fill="#231F20" d="M14,17.645 C14,15.6328571 15.6328571,14 17.645,14 C19.6592857,14 21.2878571,15.6328571 21.2878571,17.645 C21.2878571,19.6571429 19.6592857,21.29 17.645,21.29 C15.6328571,21.29 14,19.6571429 14,17.645"/>
  </g>
</svg>
