<svg xmlns="http://www.w3.org/2000/svg" width="88" height="88" viewBox="0 0 88 88">
  <g fill="none" fill-rule="evenodd" transform="translate(16 28)">
    <g transform="translate(12.1)">
      <path stroke="#231F20" d="M0.0190628571,16.5534171 C0.0190628571,7.48141714 7.37334857,0.125074286 16.4453486,0.125074286 C25.5194057,0.125074286 32.8757486,7.48141714 32.8757486,16.5534171 C32.8757486,25.6274743 25.5194057,32.98176 16.4453486,32.98176 C7.37334857,32.98176 0.0190628571,25.6274743 0.0190628571,16.5534171 Z"/>
      <g fill="#231F20">
        <path d="M31.7001333,19.9944667 C31.2461333,19.9944667 30.8981333,19.7264667 30.6541333,19.1904667 L31.7001333,17.5504667 L31.7001333,16.2704667 L30.4281333,18.2964667 C30.3681333,17.8984667 30.3361333,17.4684667 30.3361333,17.0124667 C30.3361333,16.0024667 30.4501333,15.2524667 30.6761333,14.7604667 C30.9021333,14.2744667 31.2421333,14.0264667 31.7001333,14.0264667 L31.7001333,13.2464667 C30.9241333,13.2464667 30.3401333,13.5624667 29.9421333,14.1984667 C29.5461333,14.8324667 29.3461333,15.7684667 29.3461333,17.0124667 C29.3461333,18.2504667 29.5461333,19.1904667 29.9421333,19.8204667 C30.3401333,20.4564667 30.9241333,20.7744667 31.7001333,20.7744667 L31.7001333,19.9944667 Z"/>
        <polygon points="24.744 19.055 23.916 19.055 22.094 19.921 22.094 20.863 23.926 19.981 23.926 25.667 22.394 25.667 22.394 26.307 26.41 26.307 26.41 25.667 24.744 25.667"/>
        <polygon points=".169 14.679 .933 14.311 .933 19.811 .271 19.811 .271 20.637 3.417 20.637 3.417 19.811 1.905 19.811 1.905 13.385 .923 13.385 .175 13.739"/>
        <path d="M17.7262 19.5655333C17.4962 20.0595333 17.1562 20.3015333 16.6902 20.3015333 16.2382 20.3015333 15.8882 20.0355333 15.6442 19.4995333L17.9662 15.8655333C18.0282 16.2995333 18.0642 16.7855333 18.0642 17.3235333 18.0642 18.3295333 17.9502 19.0755333 17.7262 19.5655333M15.3282 17.3235333C15.3282 16.3115333 15.4402 15.5655333 15.6682 15.0715333 15.8922 14.5815333 16.2342 14.3375333 16.6902 14.3375333 17.1102 14.3375333 17.4442 14.5555333 17.6922 14.9855333L15.4202 18.6055333C15.3582 18.2055333 15.3282 17.7735333 15.3282 17.3235333M16.6902 13.5575333C15.9162 13.5575333 15.3302 13.8715333 14.9342 14.5075333 14.5362 15.1415333 14.3382 16.0755333 14.3382 17.3235333 14.3382 18.5615333 14.5362 19.4995333 14.9342 20.1315333 15.3302 20.7655333 15.9162 21.0795333 16.6902 21.0795333 17.4702 21.0795333 18.0582 20.7655333 18.4542 20.1315333 18.8522 19.4995333 19.0522 18.5615333 19.0522 17.3235333 19.0522 16.0755333 18.8522 15.1415333 18.4542 14.5075333 18.0582 13.8715333 17.4702 13.5575333 16.6902 13.5575333M9.52813333 12.0668667C9.30213333 12.5588667 8.96013333 12.8028667 8.49413333 12.8028667 8.04213333 12.8028667 7.69413333 12.5348667 7.44813333 11.9968667L9.77013333 8.36486667C9.83213333 8.80286667 9.86613333 9.28286667 9.86613333 9.81886667 9.86613333 10.8248667 9.75413333 11.5748667 9.52813333 12.0668667M7.13413333 9.81886667C7.13413333 8.81286667 7.24613333 8.06286667 7.47213333 7.57286667 7.69613333 7.08086667 8.03813333 6.83686667 8.49413333 6.83686667 8.91413333 6.83686667 9.25013333 7.05486667 9.49613333 7.48486667L7.22413333 11.1068667C7.16213333 10.7068667 7.13413333 10.2788667 7.13413333 9.81886667M8.49413333 6.05486667C7.72213333 6.05486667 7.13413333 6.37086667 6.73613333 7.00686667 6.33813333 7.64286667 6.14413333 8.57886667 6.14413333 9.81886667 6.14413333 11.0608667 6.33813333 11.9968667 6.73613333 12.6328667 7.13413333 13.2668667 7.72213333 13.5868667 8.49413333 13.5868667 9.27413333 13.5868667 9.86213333 13.2668667 10.2581333 12.6328667 10.6561333 11.9968667 10.8561333 11.0608667 10.8561333 9.81886667 10.8561333 8.57886667 10.6561333 7.64286667 10.2581333 7.00686667 9.86213333 6.37086667 9.27413333 6.05486667 8.49413333 6.05486667"/>
        <polygon points="16.537 7.22 15.005 7.22 15.005 8.044 19.023 8.044 19.023 7.22 17.511 7.22 17.511 .792 16.527 .792 14.703 1.66 14.703 2.606 16.537 1.722"/>
        <polyline points="17.503 32.122 17.503 26.594 16.519 26.594 14.693 27.462 14.693 28.408 16.529 27.524 16.529 32.122"/>
        <polygon points="9.317 19.084 8.333 19.084 6.507 19.954 6.507 20.898 8.343 20.016 8.343 25.516 6.811 25.516 6.811 26.34 10.827 26.34 10.827 25.516 9.317 25.516"/>
        <path d="M25.1128,12.0346667 C24.8848,12.5246667 24.5428,12.7726667 24.0788,12.7726667 C23.6268,12.7726667 23.2768,12.5046667 23.0328,11.9666667 L25.3508,8.33466667 C25.4168,8.77066667 25.4528,9.25266667 25.4528,9.78866667 C25.4528,10.7946667 25.3388,11.5466667 25.1128,12.0346667 M22.7168,9.78866667 C22.7168,8.78066667 22.8288,8.03066667 23.0568,7.53866667 C23.2788,7.05066667 23.6228,6.80266667 24.0788,6.80266667 C24.4988,6.80266667 24.8348,7.01866667 25.0808,7.45066667 L22.8088,11.0746667 C22.7468,10.6746667 22.7168,10.2446667 22.7168,9.78866667 M24.0788,6.02466667 C23.3048,6.02466667 22.7208,6.34066667 22.3208,6.97666667 C21.9248,7.61266667 21.7268,8.54466667 21.7268,9.78866667 C21.7268,11.0286667 21.9248,11.9666667 22.3208,12.5986667 C22.7208,13.2366667 23.3048,13.5506667 24.0788,13.5506667 C24.8588,13.5506667 25.4468,13.2366667 25.8428,12.5986667 C26.2388,11.9666667 26.4388,11.0286667 26.4388,9.78866667 C26.4388,8.54466667 26.2388,7.61266667 25.8428,6.97666667 C25.4468,6.34066667 24.8588,6.02466667 24.0788,6.02466667"/>
      </g>
    </g>
    <path stroke="#231F20" d="M48.4261898 3.73158089C50.9256395 8.8452217 50.9428507 14.8653194 48.4835605 19.9942591M53.8309434.208446839C57.3898385 7.53850862 57.4166115 16.1536739 53.9055253 23.5028592M8.57314555 19.995024C6.07369583 14.8813832 6.05457227 8.86128549 8.5138625 3.73234583M3.1664796 23.518158C-.392415517 16.1880963-.417276149 7.57293103 3.0918977.22374569" transform="translate(0 4.4)"/>
  </g>
</svg>
