<?xml version="1.0" encoding="utf-8"?>
<!-- Generator: Adobe Illustrator 23.0.4, SVG Export Plug-In . SVG Version: 6.00 Build 0)  -->
<svg version="1.1" id="Слой_1" xmlns="http://www.w3.org/2000/svg" xmlns:xlink="http://www.w3.org/1999/xlink" x="0px" y="0px"
	 viewBox="0 0 88 88" style="enable-background:new 0 0 88 88;" xml:space="preserve">
<style type="text/css">
	.st0{fill-rule:evenodd;clip-rule:evenodd;fill:#181E2A;}
	.st1{fill:none;stroke:#60E5A8;}
	.st2{fill-rule:evenodd;clip-rule:evenodd;fill:#60E5A8;}
</style>
<g>
	<circle class="st0" cx="44" cy="44" r="44"/>
	<path class="st1" d="M40.6,51.9c1.4,6.9,6.4,8.4,10.9,7.9c4.8-3.6,7.8-9.3,7.8-15.8c0-3.9-1.1-7.5-3-10.5c-1.3,4.3-4.5,7.7-8.7,9.4
		c1.5-2.4,2.3-5.1,2.3-7.9c0-5.2-3.3-9.9-6.6-12.9c0,14-13.2,12.7-14.8,23.9c-1,6.8,4.2,12,9.9,13.5C37.9,58.1,37.2,54.6,40.6,51.9z
		"/>
	<path class="st2" d="M39,64h10c0.6,0,1,0.4,1,1v0c0,0.6-0.4,1-1,1H39c-0.6,0-1-0.4-1-1v0C38,64.4,38.4,64,39,64z"/>
</g>
</svg>
