<svg xmlns="http://www.w3.org/2000/svg" viewBox="0 0 88 88">
  <g fill="none" fill-rule="evenodd" transform="translate(17 16)">
    <path stroke="#181818" d="M48.5 46.5L7.5 46.5 48.5 46.5zM39 27.5L16.996582 27.5 39 27.5zM25.9879761 40.5L24 40.5 25.9879761 40.5zM25.5 46.5L25.5 33.5 19.5 33.5 19.5 46.5 13.5 46.5C12.9477153 46.5 12.5 46.0522847 12.5 45.5L12.5 27 12.4667693 27.5 6 27.5 28 6 50 27.5 43.5 27.5 43.5 27 43.5 45.5C43.5 46.0522847 43.0522847 46.5 42.5 46.5L25.5 46.5zM31.5 33.5L31.5 40.5 36.5 40.5 36.5 33.5 31.5 33.5z"/>
    <rect width="5" height="7" x="31.5" y="33.5" fill="#181818"/>
  </g>
</svg>
