<?xml version="1.0" encoding="utf-8"?>
<!-- Generator: Adobe Illustrator 23.0.4, SVG Export Plug-In . SVG Version: 6.00 Build 0)  -->
<svg version="1.1" id="Слой_1" xmlns="http://www.w3.org/2000/svg" xmlns:xlink="http://www.w3.org/1999/xlink" x="0px" y="0px"
	 viewBox="0 0 88 88" style="enable-background:new 0 0 88 88;" xml:space="preserve">
<style type="text/css">
	.st0{fill-rule:evenodd;clip-rule:evenodd;fill:#181E2A;}
	.st1{fill:none;stroke:#60E5A8;}
</style>
<g>
	<circle class="st0" cx="44" cy="44" r="44"/>
	<g>
		<path class="st1" d="M28.2,39c0-9.8,6.9-17.8,15.5-17.8c8.6,0,15.5,8,15.5,17.8c0,9.8-6.9,22.1-15.5,22.1
			C35.2,61.1,28.2,48.8,28.2,39L28.2,39z"/>
		<path class="st1" d="M56.2,60.3c0,4.1-5.5,7.4-12.3,7.4c-6.8,0-12.3-3.3-12.3-7.4"/>
		<path class="st1" d="M49.2,64.1c-1.6,0.5-3.4,0.7-5.3,0.7c-1.7,0-3.4-0.2-4.9-0.6 M46.8,39.2c-0.6-0.5-0.8-1.4-0.3-2.1
			c0.1-0.1,0.2-0.2,0.3-0.3c1.2-0.9,2.8-2,4-2c2,0,3.6,1.4,3.6,3.2c0,1.7-1.6,3.2-3.6,3.2C49.6,41.2,47.9,40.1,46.8,39.2z
			 M41.3,36.8c0.6,0.5,0.8,1.4,0.3,2.1c-0.1,0.1-0.2,0.2-0.3,0.3c-1.2,0.9-2.8,2-4,2c-2,0-3.6-1.4-3.6-3.2c0-1.7,1.6-3.2,3.6-3.2
			C38.5,34.8,40.1,35.9,41.3,36.8L41.3,36.8z M44.9,53.5c-0.6,0.5-1.7,0.5-2.3,0c-0.9-0.8-2-2-2-2.8c0-1.4,1.4-2.5,3.2-2.5
			c1.7,0,3.2,1.1,3.2,2.5C46.9,51.5,45.8,52.7,44.9,53.5z"/>
	</g>
</g>
</svg>
