<?xml version="1.0" encoding="utf-8"?>
<!-- Generator: Adobe Illustrator 23.0.4, SVG Export Plug-In . SVG Version: 6.00 Build 0)  -->
<svg version="1.1" id="Слой_1" xmlns="http://www.w3.org/2000/svg" xmlns:xlink="http://www.w3.org/1999/xlink" x="0px" y="0px"
	 viewBox="0 0 88 88" style="enable-background:new 0 0 88 88;" xml:space="preserve">
<style type="text/css">
	.st0{fill-rule:evenodd;clip-rule:evenodd;fill:#181E2A;}
	.st1{fill-rule:evenodd;clip-rule:evenodd;fill:#60E5A8;}
	.st2{fill:none;stroke:#60E5A8;}
</style>
<g>
	<circle class="st0" cx="44" cy="44" r="44"/>
	<path class="st1" d="M39,64h10c0.6,0,1,0.4,1,1v0c0,0.6-0.4,1-1,1H39c-0.6,0-1-0.4-1-1v0C38,64.4,38.4,64,39,64z"/>
	<path class="st2" d="M29.5,46.2C29.5,35.5,43.8,21,43.8,21s14.3,14.7,14.3,25.2c0,7.5-6.4,13.6-14.3,13.6S29.5,53.7,29.5,46.2z
		 M43.8,54.9c-5.1,0-9.3-3.9-9.3-8.7"/>
</g>
</svg>
