<svg fill="white" xmlns="http://www.w3.org/2000/svg" viewBox="0 0 804.31 802.92"><g id="Слой_2" data-name="Слой 2"><g id="Слой_1-2" data-name="Слой 1"><path d="M402.35,802.92h-280c-48.34,0-93.19-29.75-112.09-74.24A126.65,126.65,0,0,1,0,678.69q0-277,0-554C.15,62,43.77,11.33,105.79,1.35A118,118,0,0,1,124.21.06Q402.43,0,680.65,0a123.6,123.6,0,0,1,114.91,77,114.55,114.55,0,0,1,8.75,43.71q0,280.74,0,561.48c0,59.11-46.87,112.25-105.52,119.67a124.51,124.51,0,0,1-15.44,1Q542.83,803,402.35,802.92ZM790.33,611V606.4q0-242.23,0-484.47c0-16.54-3.54-32.48-11.36-47.05C757.51,35,723.87,14.22,678.53,14.17q-275.22-.33-550.43-.07c-4.66,0-9.33.18-14,.57C59.78,19.17,14.51,64.59,14.39,122.6q-.46,241.48-.11,483V611ZM234.4,751.65h98.82v-22H256.67V716.09h72V693.94H256.74V680.09h77V658.64H234.4Zm405,.32v-.06c9.49,0,19,.1,28.47,0,17.84-.24,30.76-15.29,29.77-30.84-.73-11.27-.1-22.63-.18-33.95a27,27,0,0,0-.81-6.89c-3.76-13.44-15.13-21.8-29.83-21.88-17.65-.09-35.29,0-52.94,0-20,0-32.12,11.92-32.32,31.82q-.15,15,0,30c.18,19.63,12.09,31.55,31.87,31.85C622,752.08,630.7,752,639.36,752ZM487.9,691.68l1.3-.57c1.32,1.4,2.67,2.77,3.94,4.21q23.79,26.64,47.58,53.29c1.17,1.3,2.7,3.11,4.14,3.18,6.76.34,13.55.15,20.4.15V658.79H543.15v61c-15.35-17-30.58-32.71-44.29-49.61-7.75-9.55-16.06-13.7-28.08-12.09-4,.54-5.33,1.26-5.3,5.43.17,27.83.08,55.67.1,83.5,0,1.46.19,2.92.31,4.65h22Zm-60.31,2H372.05V688c0-8.5.1-17-.11-25.49,0-1.39-1.36-3.9-2.19-4-6.41-.33-12.84-.18-19.36-.18v93.32h21.77V716.47h55.6v35.21h21.43V658.3c-5.49,0-10.65.26-15.76-.08-4.42-.28-6.15.9-6,5.72C427.87,673.73,427.59,683.54,427.59,693.69ZM219.18,658.64H113.68v22H155.5v71h21.85V680.35h41.83Z"/><path d="M223.91,554.65H114.54v-5.5c0-106.34-.51-212.69.23-319,.35-51,20.59-93.09,63.13-122.79,19.84-13.85,42.59-19.38,66.63-19.4q98-.12,196,0,57.51,0,115,0c57,0,95.38,28.39,119.57,78.29,10,20.56,13.78,42.58,13.78,65.33q0,158.5,0,317v6.08H580V406.86H292.65V298.06H579.43c.16-2.17.35-3.62.35-5.08,0-21,.36-42-.19-63a70.18,70.18,0,0,0-4.23-21.3c-2.81-7.94-9.59-11.58-18-11.88-1.67-.05-3.33-.05-5-.05-100.17,0-200.33.25-300.5-.2-20.48-.09-25.39,10.41-27.51,26.2-.63,4.76-.41,9.65-.41,14.48q0,155.26,0,310.52Z"/><path d="M639.87,729.81c-9,0-18,.08-27,0-6.88-.08-9.37-2.61-9.4-9.37q-.07-15.48,0-31c0-6.23,2.49-9,8.74-9q27.22-.21,54.45,0c6.63,0,8.55,2.24,8.57,8.84q.06,16,0,32c0,6.25-2.07,8.4-8.42,8.5C657.85,729.92,648.86,729.8,639.87,729.81Z"/></g></g></svg>