<svg xmlns="http://www.w3.org/2000/svg" width="88" height="88" viewBox="0 0 88 88">
  <g fill="none" fill-rule="evenodd" transform="translate(25 25)">
    <path stroke="#181818" d="M3.29183673 26.9755102L1.09387755 24.2693878C.716326531 23.8040816.5 23.2244898.5 22.6244898L.5 13.522449C.5 12.7408163.86122449 12 1.46326531 11.5040816L3.29183673 10.0040816M12.0297852.5C11.6485342.5 11.1764506.5 10.6135344.5 6.68700375.5 3.5 3.19131956 3.5 7.11785017L3.5 25.9035645C3.5 32.7911896 8.79501461 37.5461574 15.4013672 38.5527344M31.5 26.4296875L31.5 11.5337691 33.5 10.2949219 33.5.497314453 24.612449.497314453C20.6859184.497314453 17.5042857 3.30408163 17.5042857 7.23061224L17.5042857 26.0163265C17.5042857 33.6142857 23.6634694 38.5180664 31.2614286 38.5180664L33.5 38.5180664 33.5 27.6040816 31.5 26.4296875z"/>
    <path stroke="#181818" d="M31.5732653 26.5048828L26.9879768 26.5048828C26.1777727 26.5048828 25.5206299 25.6531873 25.5206299 24.8409424L25.5206299 12.8837995C25.5206299 12.0715546 26.1777727 11.5040283 26.9879768 11.5040283L31.5732653 11.5040283M25.2506122 28.4082031C24.2995918 28.4082031 23.5281633 27.6490195 23.5281633 26.7143256L23.5281633 10.8610795C23.5281633 9.92434481 24.2995918 9.16516113 25.2506122 9.16516113"/>
    <polygon fill="#181818" points="33.677 7.364 29 5.01 29 4.008 33.677 4.008"/>
    <path stroke="#181818" d="M31.5327148,35.012085 L31.5327148,31.0009766"/>
  </g>
</svg>
