<svg xmlns="http://www.w3.org/2000/svg" width="88" height="88" viewBox="0 0 88 88">
  <g fill="none" fill-rule="evenodd" stroke-linecap="round" transform="translate(26 24)">
    <path stroke="#181818" d="M20.5,14 L20.5,11.2812524 L23.1768043,7.13588124 C23.6150229,6.38117139 23.6150229,5.45161673 23.1768043,4.69690688 L20.7843077,0.553748988 L20.1247665,0.553748988 L20.1247665,3.35126586 C20.1247665,4.56411336 19.294807,5.68843185 18.0974521,5.88319568 C16.5725398,6.13107692 15.2512443,4.9602807 15.2512443,3.48184615 L15.2512443,0.553748988 L14.5917031,0.553748988 L12.1992065,4.69690688 C11.7632011,5.45161673 11.7632011,6.38117139 12.1992065,7.13588124 L14.5,11.2812524 L14.5,19.9986572"/>
    <g transform="translate(0 2.754)">
      <path fill="#181818" stroke="#231F20" d="M14.5,25.1214037 L14.5,27.2927395 L12.1992065,31.4381107 C11.7632011,32.1906073 11.7632011,33.1201619 12.1992065,33.8748718 L14.5917031,38.0202429 L15.2512443,38.0202429 L15.2512443,35.222726 C15.2512443,34.0098785 16.3670654,32.4584399 18,32.4584399 C19.5351716,32.4584399 20.5,33.611498 20.5,35.0921457 L20.5,38.0202429 L20.7843077,38.0202429 L23.1768043,33.8748718 C23.6150229,33.1201619 23.6150229,32.1906073 23.1768043,31.4381107 L20.5,27.2927395 L20.5,19.0267993 L14.5,25.1214037 Z"/>
      <path stroke="#181818" d="M35.4244804,0.163778677 L0.0542240216,35.5318219"/>
    </g>
  </g>
</svg>
