<svg xmlns="http://www.w3.org/2000/svg" viewBox="0 0 88 88">
  <g fill="none" fill-rule="evenodd" transform="translate(17 16)">
    <path stroke="#181818" d="M51.0751174,46.5 L4.95931142,46.5"/>
    <polygon stroke="#181818" points="27.527 36.727 24 36.727 36 25 48 36.727 44.455 36.727 44.455 46.5 27.545 46.5"/>
    <rect width="4" height="6" x="34" y="40" fill="#181818"/>
    <path stroke="#181818" d="M22.15,39.65 L8.85,39.65" transform="matrix(0 1 1 0 -24.15 24.15)"/>
    <circle cx="15.5" cy="22.5" r="10.5" stroke="#181818"/>
    <path stroke="#181818" d="M48.3433151,10.6458795 C48.2887456,9.25770683 47.6951406,8.35491367 46.5625,7.9375 C45.4298594,7.52008633 44.4087939,7.7603242 43.4993036,8.65821362 C42.4493036,6.84821362 41.1722801,5.10842186 38.3423151,5.10842186 C38.1383151,5.10842186 37.9263151,5.12242186 37.6763151,5.15342186 C35.1243151,5.45742186 33.0313151,7.47042186 32.5863151,10.0474219 L32.5733151,10.1164219 L32.5103151,10.1304219 C30.9113151,10.4764219 29.7943151,11.8854219 29.7943151,13.5574219 C29.7943151,13.6084219 29.7983151,13.6584219 29.8013151,13.7004219 L29.8043151,13.7624219 C29.8053151,13.7714219 29.8053151,13.7794219 29.8073151,13.7884219 C29.9243151,15.6274219 31.4243151,17.0654219 33.2303151,17.0654219 L48.3433151,17.0654219 C50.1543151,17.0654219 51.6283151,15.5614219 51.6283151,13.7124219 C51.6283151,11.8624219 50.1543151,10.6458795 48.3433151,10.6458795 Z"/>
  </g>
</svg>
