<svg xmlns="http://www.w3.org/2000/svg" width="88" height="88" viewBox="0 0 88 88">
  <g fill="none" fill-rule="evenodd">
    <g fill="#181818" stroke="#231F20" stroke-linecap="round" transform="translate(27 27)">
      <polygon points="33.021 20.541 29.502 17.041 33.021 13.5" transform="rotate(180 31.261 17.02)"/>
      <polygon points="4.502 20.5 .986 16.999 4.502 13.5"/>
      <g transform="rotate(90 10.5 10.5)">
        <polygon points="33.021 7.5 29.5 4 33.021 .5" transform="rotate(180 31.26 4)"/>
        <polygon points="4.5 7.5 .986 3.999 4.5 .5"/>
      </g>
    </g>
    <path stroke="#181818" d="M46.3419596,24.0096404 C47.5183939,24.0336559 48.6947332,24.0702961 49.870361,24.1197034 C50.8179796,24.1595709 51.7647916,24.2212232 52.7113665,24.2824009 C53.9737667,24.3639395 55.2331781,24.475806 56.4759372,24.7251205 C57.5578183,24.9421614 58.6022198,25.2658953 59.5708555,25.8091856 C60.5956157,26.3839902 61.4176537,27.1689538 62.0321304,28.1693919 C62.6819517,29.2274481 63.0429899,30.3916754 63.2786373,31.6011334 C63.465751,32.5613718 63.5682745,33.5318144 63.6472664,34.5060064 C63.7402065,35.6514864 63.8078122,36.7984378 63.8598093,37.946196 C63.9218642,39.3175448 63.9631867,40.6895105 63.9841089,42.0625203 C64.000951,43.1658547 64.0048887,44.2689518 63.9935974,45.3720963 C63.9848205,46.2329506 63.9697338,47.0939947 63.9401296,47.9543269 C63.9033616,49.0236789 63.855492,50.0927462 63.7996046,51.1612439 C63.7566216,51.9832748 63.7059529,52.8052582 63.6371137,53.6254381 C63.5226821,54.9893354 63.362421,56.3473949 62.9695488,57.6654445 C62.5570828,59.0495603 61.9097759,60.2961331 60.8235774,61.2805293 C60.1283061,61.9107213 59.3283289,62.3684862 58.4554798,62.7020922 C57.4198552,63.097825 56.3427183,63.3206087 55.2466993,63.4658879 C54.1856454,63.6065634 53.1193254,63.6812676 52.0516296,63.7460998 C51.155676,63.8004431 50.2595327,63.8464332 49.3628674,63.8860159 C48.4890696,63.924602 47.614987,63.9447257 46.740857,63.9687411 C45.0284636,64.0157279 43.3159279,64.0012047 41.6037243,63.9803691 C40.487732,63.9667952 39.3719293,63.9192864 38.2567435,63.871208 C37.2812761,63.8292047 36.3061882,63.77358 35.3319543,63.7088427 C33.9303575,63.615676 32.5309904,63.4967853 31.156673,63.1849641 C30.1996608,62.9678758 29.2750519,62.6589972 28.4174319,62.1728979 C27.2137182,61.4905933 26.3020136,60.5287413 25.6746801,59.2949356 C25.1112991,58.1870924 24.8087576,57.000843 24.6136262,55.7822724 C24.4545986,54.7893806 24.3704829,53.7885628 24.3025451,52.7859889 C24.2346072,51.7834625 24.1758733,50.7805563 24.1332698,49.7765111 C24.0995382,48.9814858 24.0753899,48.186318 24.0491541,47.3911029 C23.9949272,45.7482751 23.9938835,44.1052101 24.0068827,42.4620976 C24.0137619,41.5872422 24.0359176,40.7123869 24.0640511,39.8379112 C24.0912831,38.991675 24.1250148,38.1453439 24.1739756,37.3001045 C24.2350342,36.2461299 24.2911114,35.1917756 24.3849054,34.1396521 C24.4907499,32.9518365 24.6379643,31.7712824 24.9478594,30.6171169 C25.249879,29.49233 25.6993502,28.4349382 26.4258388,27.512574 C27.2863053,26.4200609 28.4072792,25.6978412 29.7022251,25.2260753 C30.8152286,24.8205653 31.9707881,24.6102166 33.1420986,24.4719142 C34.1954667,24.3475179 35.2530573,24.2773225 36.3117865,24.2186128 C37.2915711,24.164317 38.2714507,24.1169031 39.2519944,24.0782696 C40.7911274,24.017614 42.330545,23.9854351 43.8708166,24.0064131 C44.6945626,24.0064131 45.5185457,23.9928391 46.3419596,24.0096404 Z"/>
  </g>
</svg>
