<?xml version="1.0" encoding="utf-8"?>
<!-- Generator: Adobe Illustrator 23.0.4, SVG Export Plug-In . SVG Version: 6.00 Build 0)  -->
<svg version="1.1" id="Слой_1" xmlns="http://www.w3.org/2000/svg" xmlns:xlink="http://www.w3.org/1999/xlink" x="0px" y="0px"
	 viewBox="0 0 88 88" style="enable-background:new 0 0 88 88;" xml:space="preserve">
<style type="text/css">
	.st0{fill-rule:evenodd;clip-rule:evenodd;fill:#181E2A;}
	.st1{fill:none;stroke:#60E5A8;}
	.st2{fill-rule:evenodd;clip-rule:evenodd;fill:#60E5A8;}
</style>
<g>
	<circle class="st0" cx="44" cy="44" r="44"/>
	<g>
		<path class="st1" d="M36.4,59l-0.7,1.2c-0.6,1,0.1,2.3,1.3,2.3h13.7c1.1,0,1.7-1.3,1.2-2.3l-0.6-1.2 M46.5,24.6
			c0,0.6-0.4,0.9-1,0.9h-2.9c-0.6,0-1.1-0.3-1.1-0.9 M36,40.6c0-4.2,3.4-7.6,7.6-7.6c4.2,0,7.6,3.4,7.6,7.6s-3.4,7.6-7.6,7.6
			C39.4,48.2,36,44.8,36,40.6z"/>
		<path class="st1" d="M26.5,40.5C26.5,30.8,34.3,23,44,23c9.7,0,17.5,7.8,17.5,17.5C61.5,50.2,53.7,58,44,58
			C34.3,58,26.5,50.2,26.5,40.5z"/>
	</g>
	<path class="st2" d="M40,40.6c0-2,1.6-3.6,3.6-3.6s3.6,1.6,3.6,3.6s-1.6,3.6-3.6,3.6S40,42.7,40,40.6"/>
</g>
</svg>
