<svg xmlns="http://www.w3.org/2000/svg" width="88" height="88" viewBox="0 0 88 88">
  <g fill="none" fill-rule="evenodd" transform="translate(32 24)">
    <path stroke="#181818" d="M3.54156239,0.5 L20.5,0.5 C22.1929805,0.5 23.5,1.84624276 23.5,3.53922325 L23.5,36.181039 C23.5,37.8760766 22.1929805,39.5 20.5,39.5 C19.3713463,39.5 13.729688,39.5 3.57502494,39.5 C1.88204445,39.5 0.474449501,37.8760766 0.474449501,36.181039 L0.474449501,3.53922325 C0.474449501,1.84624276 1.8485819,0.5 3.54156239,0.5 Z"/>
    <path fill="#181818" d="M16.7467523,19.1820217 L8.76019461,14.0760217 C8.42433666,13.8600217 8,14.1300217 8,14.5620217 L8,24.7760217 C8,25.2080217 8.42433666,25.4780217 8.76019461,25.2620217 L16.7467523,20.1540217 C17.0844159,19.9380217 17.0844159,19.3980217 16.7467523,19.1820217"/>
    <path stroke="#181818" d="M17.9492188 36.5L6.01062012 36.5M16.5 1.02673986L16.5 1.86020657C16.5 2.16587431 15.8056677 2.5 15.5 2.5L8.56764991 2.5C8.26388072 2.5 7.5 2.16587431 7.5 1.86020657L7.5 1.02673986"/>
  </g>
</svg>
