<svg xmlns="http://www.w3.org/2000/svg" viewBox="0 0 1144.17 436.04"><defs><style>.cls-1{fill:#d8d7d5;}.cls-2{fill:#ff3a35;}.cls-3{fill:#55565a;}.cls-4{fill:#fff;}.cls-5{fill:#55555a;}.cls-6{fill:#fefefd;}.cls-7{fill:#55565b;}</style></defs><g id="Слой_2" data-name="Слой 2"><g id="Слой_1-2" data-name="Слой 1"><path class="cls-1" d="M384.84,60v83.89c-6.11.09-12.19.23-18.2.4-8.63.25-15.34,2.32-20.52,6.33-5.41,4.17-8.9,10.16-10.69,18.32a99.06,99.06,0,0,0-.4,39.77h0l-16.38,9.45V119.29l-10-5.77L196.48,48.77,281,0Z"/><polygon class="cls-2" points="0 130.84 149.32 44.63 298.65 130.84 298.65 303.26 149.32 389.47 0 303.26 0 130.84"/><path class="cls-1" d="M491.76,268.8V380.3L395.21,436,298.65,380.3V326.35l10-5.77,10-5.77V257.25l10.43-6c.18,1.33.39,2.7.62,4.1,2.7,16.85,12.17,26,28.95,27.9a166,166,0,0,0,19.37.94c3.08,0,6.17,0,9.16-.09s5.91-.08,8.82-.08c3.6,0,6.58.06,9.37.2l.59,0,.6,0c3-.15,6.16-.22,10-.22,2.9,0,5.88,0,8.76.08s6,.08,9.07.08a178.87,178.87,0,0,0,20.34-1c13.55-1.57,22.28-8.54,26-20.72Z"/><path class="cls-1" d="M593.41,79.6V143h-4.75l-11.86,0H568l-4.15,0c-4.31,0-8.78-.09-13.2-.09-6.65,0-12.16.1-17.31.32-9.91.41-17.37,3.15-22.81,8.37-6.9,6.62-8.83,15.61-9.68,21.8v.09a28.45,28.45,0,0,0-.33,4c0,7-.06,14.09-.12,21-.07,9-.15,18.09-.11,27.27l-18.36-10.6c-1-5.79-3.08-11.75-7.9-16.48a24.55,24.55,0,0,0-4-3.2,13.29,13.29,0,0,0,11.42-13.18c.08-6.36.21-17-6.93-26.37-8.47-11.1-21.43-11.47-25.69-11.59-9.54-.28-19.07-.46-28.5-.54V79.6l86.56-50Z"/><path class="cls-1" d="M551.66,187.54l27.76.09-27.73,16C551.69,198.16,551.67,192.8,551.66,187.54Z"/><path class="cls-1" d="M574.2,238H562.52l43.3-25,8.79,5.08a14.1,14.1,0,0,0-9.21,4.18,14.61,14.61,0,0,0-4,10.93c0,1.56,0,3.17,0,4.85C592.13,238.06,583,238,574.2,238Z"/><path class="cls-1" d="M682.21,281v64.39l-76.39,44.1-76.4-44.1V283.06a108.11,108.11,0,0,0,15.35.82H545c9,0,17.77.05,25.15.05h33.42c6,0,13-.09,20.11-.8,13.91-1.38,25.22-11.1,27.5-23.64A108,108,0,0,0,652.47,240l11.18,6.45c0,1.54.06,3.06.09,4.57C664.05,265.8,670.7,276.46,682.21,281Z"/><path class="cls-1" d="M765.41,103.58v39.53c-9.27,0-18.67-.07-28-.07-13.58,0-25.55.06-36.58.2-8.33.11-18.89,1.09-26.65,7.76-8.54,7.34-10,18.23-10.32,25.78-.29,6.53-.48,13.08-.58,19.58l-10.82-6.24h0c0-.18,0-.35,0-.53-.07-1.79-.08-3.62-.1-5.56,0-3,0-6.1-.29-9.33-.37-5-1.22-16.63-11-24.23a32.65,32.65,0,0,0-7.06-4.17V103.58l65.7-37.93Z"/><path class="cls-1" d="M842.85,251.35v67.32l-58.31,33.67-58.3-33.67V284.1h21.24l14.71,0q7.41,0,14.81,0c7.16,0,13.07,0,18.61-.1,7.2-.09,17.67-1,25.43-7.82,8.22-7.23,9.83-17.66,10.32-24.88.15-2.14.27-4.27.38-6.41Z"/><path class="cls-1" d="M899.55,125.93v16.4c-12.73,0-25.63,0-38.38-.06h-.07a15.44,15.44,0,0,0-11.38,4.33c-2.87,2.88-4.32,6.74-4.3,11.45,0,17.88.07,34.47.07,50.16l-13.29-7.67c-.09-5.2-.21-10.37-.33-15.5l-.15-6.71c-.18-8-1.78-14.48-4.88-19.77-4.24-7.21-11.2-12-20.15-13.74l-1-.2c-1.39-.28-2.87-.59-4.43-.84V125.93l49.14-28.37Z"/><path class="cls-1" d="M940.72,272.78c4.17,4.15,10.47,9.44,19.72,11.11V292L916,317.62,871.61,292v-7.91c2.86,0,5.42.05,7.82.17l1.25,0a15.42,15.42,0,0,0,11.44-4.42c4.43-4.51,4.33-10.3,4.3-12.19-.12-6.23-.11-12.59-.1-18.75,0-3,0-6,0-9,3.19,0,6.39-.06,9.5-.12,3.62,3.42,7.28,6.82,10.83,10.13C924.66,257.31,932.92,265,940.72,272.78Z"/><path class="cls-1" d="M945.82,194.22c-7.66.14-15.38.22-23.05.24v-8.81c7.11,0,15.12,0,23,0v1.1C945.83,189.35,945.85,191.81,945.82,194.22Z"/><path class="cls-1" d="M1000.73,152.08v45l-3.7,2.13c.11-6.83.08-13.7-.07-20.51,0-1.09-.05-2.18-.08-3.26a46.28,46.28,0,0,0-.71-7.13,29.81,29.81,0,0,0-6.28-14.15c-4.44-5.35-10.81-8.81-19.47-10.59a51,51,0,0,0-10.29-1.19l-20.52,0,22.14-12.78,36.16,20.87Z"/><polygon class="cls-1" points="1042.69 245.11 1042.69 276.28 1029.93 283.65 1004.61 262.88 988.71 249.84 988.71 245.11 1015.7 229.53 1042.69 245.11"/><path class="cls-1" d="M1050.13,205.34q0,9.65,0,19.47l-19.78-11.42v-23.8l2.65-1.53h17.11Q1050.12,196.72,1050.13,205.34Z"/><path class="cls-3" d="M820.06,193.53q-.16-7.47-.34-14.93c-.23-10.29-3.26-19.6-15.37-22l-3.08-.62a34.36,34.36,0,0,0-6.27-.73l-29.59-.13q-14-.06-28-.07-18.21,0-36.43.2c-17.85.23-24.38,5.36-25.13,22.08-.39,8.63-.58,17.27-.65,25.92h0c-.13,15.84.18,31.69.5,47.52,0,.93.07,1.84.16,2.75.5,5.43,2.25,10.42,6.31,13.74a17.28,17.28,0,0,0,7.4,3.48A51.67,51.67,0,0,0,700.48,272q10.95.09,21.91.08h3.85l21.23,0c9.84,0,19.68.06,29.53.06,6.15,0,12.3,0,18.46-.1,16.27-.2,22.83-5.5,23.93-21.52q.42-6.17.65-12.34C820.59,223.31,820.38,208.41,820.06,193.53Zm-27.51,52.85c0,3.34-1,4.14-4.17,4.14h-.06q-19.86-.08-39.73-.09-10.41,0-20.81,0-10.21,0-20.43.09h-.1c-3.7,0-4.61-1.12-4.58-4.81q.12-15.08.12-30.15,0-17.91-.15-35.82c0-3.29,1.16-3.74,3.84-3.74h.19q9.81.08,19.61.07l21.38,0,17.75,0h4c6.43,0,12.85,0,19.28-.1h.2a4,4,0,0,1,2.93.79,2.06,2.06,0,0,1,.36.5,2.83,2.83,0,0,1,.24.66,6.13,6.13,0,0,1,.13.82c0,.34,0,.71,0,1.12q-.12,21.18-.08,42.35Q792.46,234.31,792.55,246.38Z"/><path class="cls-3" d="M988.71,265.36l-28.27-23.18-6.13-5L943.18,228c7.75-.5,14.68,0,21.58-.74,13.59-1.4,19.74-7.41,20.12-21v0q.43-15.23,0-30.45c-.34-12.3-5.27-18.07-16.88-20.46a40,40,0,0,0-7.92-.94q-18.66,0-37.31,0H899.55q-19.2,0-38.41-.06h0c-2.8,0-3.69.93-3.68,3.74q.06,24.48.07,49,0,30.73,0,61.48c0,3.1,1.09,3.8,3.62,3.8h.46c3.34-.09,6.69-.16,10-.16h.06c2.8,0,5.6.05,8.39.18l.68,0a4.65,4.65,0,0,0,2.44-.5,2,2,0,0,0,.51-.41c.61-.69.82-1.81.79-3.5-.22-11.49,0-23-.14-34.48,0-.5,0-1,0-1.49,0-1.59.2-2.64.81-3.29a1.7,1.7,0,0,1,.24-.22,4.25,4.25,0,0,1,2.68-.65h.46c1.8.07,3.59.1,5.4.11h2c3.85,0,7.7-.08,11.55-.15h.19a6.94,6.94,0,0,1,5.15,2.08c12.14,11.49,24.58,22.68,36.42,34.49a35.47,35.47,0,0,0,5.26,4.41q.79.56,1.62,1a21.42,21.42,0,0,0,3.19,1.48c.39.14.78.27,1.18.39l.54.16.55.13a22.65,22.65,0,0,0,2.4.42,23.86,23.86,0,0,0,2.57.14c.74,0,1.5,0,2.28-.1,3.5-.3,7-.39,10.62-.39,3,0,6.13.06,9.31.12,2.69.05,5.45.1,8.29.1Zm-101-58.81h-.36c-2.72,0-3.74-.71-3.66-3.78.09-3.67.13-7.35.14-11q0-7.22-.13-14.43c-.05-2.73.65-3.72,3.5-3.72h.09l12.23,0h23.22c8.16,0,16.32,0,24.48.06,8.45,0,10.51,2.3,10.54,10.66,0,4.66.11,9.33-.06,14-.2,5.48-2.14,7.68-7.58,7.79-3.79.08-7.59.14-11.38.19q-10.29.13-20.57.14c-5.54,0-11.08,0-16.62,0C897,206.43,892.35,206.46,887.74,206.55Z"/><path class="cls-4" d="M954.31,237.15l6.13,5v-1.49Zm75.62,46.5-.89.51h1.51Z"/><path class="cls-5" d="M470,256.21c-.15.66-.32,1.32-.5,2-2.25,8.33-7.4,12-16.07,13a164.74,164.74,0,0,1-19,.91c-5.94,0-11.88-.16-17.83-.16-3.55,0-7.1.06-10.64.24-3.32-.17-6.64-.22-10-.22-6,0-12,.17-18,.17a157,157,0,0,1-18-.86c-11.48-1.32-16.61-6.3-18.47-17.88-.73-4.53-1.16-7.29-.72-9s1.67-2.27,4.31-2.49c1.52-.14,3.48-.14,6-.14,1.25,0,2.5,0,3.75,0,.75,0,1.51,0,2.25-.07,1-.07,2-.14,2.93-.14a9.76,9.76,0,0,1,2.51.27,5.23,5.23,0,0,1,.84.32,3,3,0,0,1,.7.48,2.13,2.13,0,0,1,.3.3c.83,1,1.14,2.61.65,5.28-.39,2.12,1.46,2.14,3,2.14h37.58q19.5,0,39,.07h0c1.58,0,2.27-.44,2.56-1.19a2.52,2.52,0,0,0,.13-.49,8.37,8.37,0,0,0,.08-1.64c0-1.34,0-2.67-.05-4-.08-5-.14-10,.08-15a8.2,8.2,0,0,0-.12-2.07,2.75,2.75,0,0,0-.11-.41,2.61,2.61,0,0,0-.51-1,1.53,1.53,0,0,0-.18-.18,1,1,0,0,0-.19-.17h0a2.07,2.07,0,0,0-.45-.27,3.12,3.12,0,0,0-.49-.18l-.28-.08a8.79,8.79,0,0,0-2-.18H443q-13.56.12-27.11.11h-2.05c-7.95,0-15.88,0-23.83-.07h-7.82c-1.81,0-3.61,0-5.41-.05h0c-.71,0-1.41,0-2.11-.05h0c-.84,0-1.67-.06-2.5-.1a87.64,87.64,0,0,1-10-1c-8.3-1.39-13.2-6-14.87-13.88-.44-2.11-.82-4.21-1.11-6.32h0a86.47,86.47,0,0,1,1-30.8c2.28-10.43,7.9-14.87,19.82-15.22q8.92-.25,17.86-.39,10.85-.18,21.7-.17,6.87,0,13.75.07,14.07.12,28.16.53c6,.17,12.31,1.4,16.49,6.88,4.31,5.66,4.55,12.27,4.47,18.94,0,1.6-1.48,1.6-2.63,1.6h-11c-2.33,0-4.65,0-7,0h-.09a3.1,3.1,0,0,1-2.4-.8,1.73,1.73,0,0,1-.3-.41,4.46,4.46,0,0,1-.28-2.69c.42-3.2-1.09-3.79-3.94-3.79h-.09q-10.69,0-21.39.06H409.2q-12.18,0-24.36,0l-11.15,0h-.08a6.26,6.26,0,0,0-2.65.43,2.3,2.3,0,0,0-.58.37,1.67,1.67,0,0,0-.23.23,4.45,4.45,0,0,0-.72,3.22c.12,2.79.2,5.61.21,8.41s0,5.39-.17,8.08c-.18,3.47.88,4.47,4.29,4.47h.12q16.2-.12,32.42-.1l33.56,0a80,80,0,0,1,11.45.73c13.71,2,17.94,5.61,19.36,19.57C471.84,233,472.65,244.75,470,256.21Z"/><path class="cls-3" d="M640.51,233.45c-.12,8,.26,16-1.18,23.9-1.33,7.32-8.46,13-16.88,13.85-6.3.63-12.6.74-18.92.74H570.11q-12.55,0-25.09-.05a92.83,92.83,0,0,1-14.93-.87l-.67-.12-1-.2-1-.22-1-.23-.94-.26-.81-.25-.13,0c-.28-.08-.55-.18-.81-.28l-.81-.31-.75-.33h0l-.81-.4-.33-.18-.24-.13-.08-.05c-.29-.17-.57-.35-.84-.53l-.51-.36a.81.81,0,0,1-.14-.12l-.11-.08a4.23,4.23,0,0,1-.41-.33l-.12-.1a4.49,4.49,0,0,1-.39-.36,11.49,11.49,0,0,1-1-1l-.23-.28c-.1-.13-.21-.26-.31-.4s-.3-.41-.45-.63a3.45,3.45,0,0,1-.25-.41c-.11-.16-.2-.32-.29-.48a13.48,13.48,0,0,1-.69-1.37c-.08-.18-.16-.36-.23-.55v0a.14.14,0,0,1,0-.06,5.87,5.87,0,0,1-.24-.63c-.14-.39-.28-.81-.4-1.23-.07-.21-.13-.43-.18-.64s-.12-.44-.17-.67-.16-.67-.23-1c-.13-.68-.25-1.38-.35-2.12,0,0,0-.06,0-.09,0-.38-.1-.77-.14-1.16l-.12-1.21c-.06-.86-.12-1.76-.15-2.7q-.11-2.82-.18-5.64v-.22c0-.53,0-1.06,0-1.58,0-1,0-2-.07-3,0-.37,0-.75,0-1.12,0-2.18-.07-4.37-.1-6.55l0-5q0-3.18,0-6.36v-.44c0-2.4,0-4.82,0-7.23q0-3.94.05-7.9v-.08l.09-10.71c0-1.81,0-3.62,0-5.43,0-1.44,0-2.88,0-4.32,0-2.15,0-4.29,0-6.44a19,19,0,0,1,.23-2.49c1.86-13.54,7.36-19.24,21.1-19.81,1.44-.06,2.88-.11,4.33-.15s2.88-.07,4.33-.09c2.66,0,5.33-.07,8-.07h.16c8.72,0,17.45.18,26.16.18V155c5.54,0,11.08,0,16.61,0h7.16c2.95,0,5.9,0,8.86,0l8.86.08c5.54.06,11,1.43,15.43,4.87l.29.23a13.67,13.67,0,0,1,1.76,1.72c.12.14.24.28.35.43a4.46,4.46,0,0,1,.33.43c.12.16.24.33.35.5l.21.32.31.53c.09.15.18.31.26.47a5.21,5.21,0,0,1,.24.47c.08.16.15.32.22.48a4.25,4.25,0,0,1,.21.49c.07.17.14.33.2.5a4.24,4.24,0,0,1,.18.5,20.09,20.09,0,0,1,.59,2.05v0c.08.36.16.72.23,1.09s.14.74.2,1.12.11.69.15,1,.09.7.13,1c.07.73.14,1.46.19,2.19s.08,1.26.11,1.88.06,1.26.07,1.89c0,1.26.05,2.52.07,3.78v.36l0,3c0,.19,0,.38,0,.57,0,1,0,2,.08,3.06.09,2.17-.38,3.3-2.84,3.3h-.12q-3.91-.06-7.83-.06-6.59,0-13.16.18c-.24,0-.47,0-.67,0l-.39,0a1.86,1.86,0,0,1-.34-.06l-.31-.08a1.69,1.69,0,0,1-.27-.1,1.81,1.81,0,0,1-.45-.28h0a1.42,1.42,0,0,1-.26-.29c-.06-.08-.11-.17-.16-.25s-.09-.19-.13-.29l-.06-.2a3.21,3.21,0,0,1-.08-.36,6.06,6.06,0,0,1-.06-.64c0-.3,0-.64,0-1,.19-3.82-.06-7.66.1-11.49a4.88,4.88,0,0,0,0-1s0-.05,0-.07a.51.51,0,0,0,0-.17,1.16,1.16,0,0,0,0-.18c0-.1-.07-.2-.11-.29a1.6,1.6,0,0,0-.25-.37,1.14,1.14,0,0,0-.16-.15,1.29,1.29,0,0,0-.32-.19,1.26,1.26,0,0,0-.29-.12l-.16,0a1.59,1.59,0,0,0-.3-.06l-.2,0-.21,0q-.32,0-.69,0H593.41q-11.34,0-22.69,0-13.53,0-27.06-.1h-.06a5.54,5.54,0,0,0-2.51.44,2.47,2.47,0,0,0-.55.39,4.15,4.15,0,0,0-.92,3.18q.07,15.53.08,31,0,18-.08,35.94v0a2.81,2.81,0,0,0,0,.29c0,.09,0,.18,0,.27a4.15,4.15,0,0,0,.05.53,2.36,2.36,0,0,0,0,.28c0,.13,0,.25.08.37l.09.27.12.24a.56.56,0,0,0,.09.17,1.7,1.7,0,0,0,.15.22l.18.19a.69.69,0,0,0,.13.11.71.71,0,0,0,.14.1.82.82,0,0,0,.2.12l.08,0,.08,0,.18.07a1.91,1.91,0,0,0,.34.1l.25.05.33,0c.11,0,.23,0,.35,0l.38,0h.47q15.42-.06,30.83-.06,17.82,0,35.66.08h0c2.76,0,3.69-.89,3.56-3.68-.2-4.49,0-9-.08-13.5a2.51,2.51,0,0,1,0-.39,1.41,1.41,0,0,1,0-.21,1.14,1.14,0,0,1,0-.27,2.43,2.43,0,0,1,0-.3.79.79,0,0,1,.06-.22.84.84,0,0,1,.05-.17,1.52,1.52,0,0,1,.15-.34,1.5,1.5,0,0,1,.28-.37,1.87,1.87,0,0,1,.83-.46l.21-.05.13,0a4,4,0,0,1,.54-.06h.57q9.51.25,19,.27h2.54l.29,0,.36,0,.33.07h0a.85.85,0,0,1,.17.06l.05,0a.85.85,0,0,1,.22.09,1,1,0,0,1,.18.09.52.52,0,0,1,.17.12l0,0a.35.35,0,0,1,.09.07,1.61,1.61,0,0,1,.34.4,2.48,2.48,0,0,1,.23.52,4.07,4.07,0,0,1,.12.55l0,.22h0v0c0,.12,0,.26,0,.4S640.51,233.32,640.51,233.45Z"/><path class="cls-5" d="M1144.16,173.07a5.4,5.4,0,0,1-.12.86c0,.13-.07.25-.11.37a1.62,1.62,0,0,1-.13.33c0,.1-.11.2-.17.3a2.85,2.85,0,0,1-.44.48h0a1.85,1.85,0,0,1-.27.19,3.08,3.08,0,0,1-.66.3,4.81,4.81,0,0,1-.81.18l-.47.06-.42,0h-.84c-5.27-.07-10.54-.08-15.8-.08h-12.29c-5.64,0-11.27,0-16.9-.1h-.4c-.44,0-.85,0-1.22,0l-.28,0a4.94,4.94,0,0,0-1.64.39l-.35.2h0a2.34,2.34,0,0,0-.31.24l-.14.14-.14.15h0a2.2,2.2,0,0,0-.17.25,2.61,2.61,0,0,0-.17.28h0a2.2,2.2,0,0,0-.09.21,4.72,4.72,0,0,0-.16.45c-.05.18-.09.38-.13.59s0,.32-.07.5a12.83,12.83,0,0,0-.07,1.59c.24,29.16.05,58.32.19,87.48,0,3.33-.88,4.45-3.86,4.45h-.61c-3.22-.14-6.44-.25-9.67-.25-2.78,0-5.56.08-8.32.28-.34,0-.66,0-.95,0a8.77,8.77,0,0,1-1.21-.08l-.45-.1a2.46,2.46,0,0,1-.41-.13l-.18-.07-.18-.09a1.09,1.09,0,0,1-.23-.14h0l-.2-.14a3.45,3.45,0,0,1-.28-.26h0a1.09,1.09,0,0,1-.13-.17l-.13-.18a.6.6,0,0,1-.09-.15,1.91,1.91,0,0,1-.16-.32.3.3,0,0,1,0-.1,1.6,1.6,0,0,1-.1-.31,1,1,0,0,1-.07-.25,4.13,4.13,0,0,1-.11-.53,9.66,9.66,0,0,1-.1-1c0-.43,0-.9,0-1.41q.13-24.39.1-48.79,0-17.34,0-34.69v0c0-.76,0-1.45,0-2.07,0-.41,0-.79,0-1.15,0-.13,0-.26,0-.39s0-.24,0-.36a1.94,1.94,0,0,0,0-.24c0-.15,0-.3,0-.44s0-.25,0-.37,0-.28-.07-.41a.08.08,0,0,1,0,0c0-.14-.07-.28-.11-.41a2.87,2.87,0,0,0-.18-.47,2.27,2.27,0,0,0-.29-.48l-.18-.2a2.88,2.88,0,0,0-.43-.33,2.69,2.69,0,0,0-.54-.25,5.23,5.23,0,0,0-.66-.18l-.38-.06-.86-.1-.49,0-.52,0H1054c-7.38,0-14.75,0-22.12,0q-9.94,0-19.88.09a9,9,0,0,1-1.92-.14,1.89,1.89,0,0,1-.34-.09,1.63,1.63,0,0,1-.31-.11l-.27-.14-.15-.09,0,0-.13-.1,0,0-.11-.11a1.79,1.79,0,0,1-.3-.42c0-.06-.06-.11-.08-.16s0,0,0,0l-.06-.17a2.13,2.13,0,0,1-.08-.27c0-.06,0-.11,0-.17s0-.05,0-.07,0,0,0-.07l0-.23,0-.37a9.15,9.15,0,0,1,0-1,92.32,92.32,0,0,0,0-13c-.3-3.64,1.09-4.35,4.35-4.35h.15l8.6,0,5.88,0c2,0,3.92,0,5.88,0,14.14,0,28.28,0,42.41,0h.72c10.87,0,21.74,0,32.6,0q15.45,0,30.89-.13h.88a3.44,3.44,0,0,1,.46,0h0l.44.06.28,0a1.31,1.31,0,0,1,.27.06h.05l.28.08.1,0a.77.77,0,0,1,.19.08,1.21,1.21,0,0,1,.2.09l.19.1.2.14.16.13h0s0,0,0,0a1.86,1.86,0,0,1,.23.26.76.76,0,0,1,.08.11,1,1,0,0,1,.08.11v0a2,2,0,0,1,.13.25,2,2,0,0,1,.1.26,2,2,0,0,1,.08.26,4,4,0,0,1,.13.64h0a10,10,0,0,1,0,1.91,84.18,84.18,0,0,0,0,12A10.67,10.67,0,0,1,1144.16,173.07Z"/><path class="cls-6" d="M148.93,132.87c19.32,0,38.65.23,58,.35a54,54,0,0,1,10.89,1.3c12.44,2.72,18.69,10.14,20.5,24.31a114,114,0,0,1,.91,13.94c.08,30.16-.52,60.33.22,90.48C240,286.42,224,296.32,206.51,297c-9.65.4-19.33.13-29,.11-28.16,0-56.32,0-84.48-.26a50,50,0,0,1-18-3.4c-7.51-3-11.64-8.63-13.54-16.07-1.95-7.63-2.12-15.47-1.94-23.32,0-2.18.84-2.87,3-2.86q16,.13,32,0c2.13,0,3.1.74,3.07,2.83,0,.5,0,1,0,1.5.32,10.65.32,10.64,11.28,10.64,29,0,58-.1,87,.06,3.9,0,5.18-1,5.06-5q-.42-13.74,0-27.49c.13-4-1.39-4.64-4.92-4.62-23.49.13-47-.07-70.48.17-4.74.05-5.94-1.44-5.7-5.93.36-7,.31-14,0-21-.19-4.11,1-5.37,5.25-5.34,23.33.21,46.66,0,70,.18,4.32,0,6.15-.82,5.89-5.68-.44-8.48-.2-17,0-25.49.05-3-.85-4-4-4q-47.49.12-95,0c-3.47,0-4.58,1.06-4.52,4.56.15,9.08,0,9.1-9.13,9.13-8.16,0-16.33-.11-24.49,0-3.2.06-4.35-.94-4.34-4.28A100,100,0,0,1,61,154.11c1.9-10.69,10.14-18.12,21.51-20a117.49,117.49,0,0,1,18.92-1.26q23.75,0,47.49,0Z"/><path class="cls-7" d="M747.62,231.12c-6,0-12-.1-18,0-2.54.07-3.5-.63-3.46-3.32q.22-14.72,0-29.43c0-2.53.61-3.49,3.29-3.46,12.47.11,24.93.08,37.4,0,2,0,2.8.43,2.78,2.71q-.13,14.72.18,29.42c.07,3.29-1.11,4.23-4.32,4.1C759.6,231,753.61,231.13,747.62,231.12Z"/></g></g></svg>